<svg xmlns="http://www.w3.org/2000/svg" width="1269" height="826" viewBox="0 0 1269 826">
<g>
<path d="M 0.00 0.00 L 1269.00 0.00 L 1269.00 826.00 L 0.00 826.00 ZM 424.76 657.47 C439.81,665.86 469.52,621.76 478.97,576.98 C481.70,564.05 481.74,545.21 479.06,534.73 C473.50,513.00 459.92,492.23 441.08,476.67 L 436.66 473.02 L 439.96 448.76 C441.78,435.42 443.57,423.66 443.95,422.63 C444.71,420.55 450.49,418.03 482.00,406.05 C512.62,394.40 557.20,380.49 573.20,377.60 L 576.90 376.93 L 570.53 383.04 C560.54,392.64 553.91,407.23 556.96,412.92 C558.58,415.96 563.90,418.99 567.59,419.00 C572.69,419.00 581.53,415.47 600.17,406.00 C609.89,401.05 618.94,396.59 620.29,396.08 L 622.74 395.15 L 622.62 407.39 C622.50,419.38 622.56,419.74 625.54,424.57 C627.99,428.55 629.90,430.17 635.45,433.00 C642.18,436.42 642.59,436.50 653.91,436.43 C663.25,436.37 667.45,435.83 675.50,433.64 C695.08,428.31 728.00,415.42 762.42,399.61 C773.93,394.32 783.44,390.00 783.55,390.00 C783.67,390.00 782.16,393.03 780.19,396.74 C777.09,402.58 776.60,404.42 776.56,410.55 C776.51,416.50 776.90,418.22 779.00,421.33 C784.66,429.71 793.12,433.00 808.91,432.99 C825.12,432.98 845.68,427.70 877.00,415.51 C907.30,403.73 956.86,380.21 970.50,371.15 C977.60,366.43 979.62,362.94 975.68,362.18 C974.68,361.98 963.20,366.99 950.18,373.30 C896.24,399.45 857.00,415.60 834.00,421.13 C807.38,427.53 787.00,422.60 787.00,409.76 C787.00,403.22 792.02,393.98 799.92,385.98 C812.60,373.13 826.30,366.44 838.24,367.26 C846.32,367.82 847.95,366.72 846.00,362.01 C842.38,353.26 819.60,357.60 803.32,370.15 C797.89,374.33 786.72,379.60 748.50,396.02 C707.33,413.70 677.98,423.73 660.65,426.04 C651.02,427.32 644.35,426.06 637.94,421.74 C631.64,417.50 630.81,408.30 635.51,394.96 C638.51,386.46 636.78,383.39 629.13,383.69 C625.50,383.83 619.47,386.38 599.92,396.04 C568.32,411.66 561.66,412.90 567.54,402.10 C573.53,391.10 590.88,377.19 606.33,371.00 C616.53,366.92 619.50,367.21 623.47,372.69 C628.39,379.50 632.85,379.46 630.89,372.62 C629.72,368.49 627.07,365.02 622.91,362.15 C619.68,359.92 618.96,359.84 609.00,360.48 C578.89,362.43 511.28,381.82 462.66,402.44 C453.95,406.13 446.59,408.92 446.30,408.63 C445.70,408.04 448.68,390.74 459.48,332.00 C463.67,309.17 467.99,285.55 469.07,279.50 C472.54,260.13 477.04,239.08 482.54,216.49 C495.19,164.61 506.40,140.00 517.38,140.00 C522.34,140.00 523.55,138.03 522.00,132.50 C518.73,120.82 508.42,118.53 499.45,127.49 C480.94,146.01 457.98,238.06 434.47,388.00 C431.56,406.56 429.57,416.64 428.75,416.91 C428.06,417.14 421.20,420.54 413.50,424.47 C388.67,437.14 373.62,448.56 375.98,452.96 C377.70,456.17 382.00,458.60 397.04,464.84 C404.99,468.14 414.14,472.01 417.36,473.46 L 423.23 476.08 L 422.56 483.79 C422.20,488.03 421.25,498.02 420.46,506.00 C410.94,602.06 412.31,650.54 424.76,657.47 ZM 438.64 640.76 C436.11,643.09 433.60,645.00 433.05,645.00 C426.26,645.00 425.55,608.95 430.98,539.94 C435.13,487.13 435.36,485.00 436.97,485.00 C439.03,485.00 450.04,495.26 454.85,501.67 C465.13,515.34 469.96,527.40 472.00,544.47 C473.31,555.43 472.79,563.74 469.88,578.33 C465.27,601.51 451.62,628.80 438.64,640.76 ZM 426.53 446.50 C425.38,457.23 424.11,464.98 423.52,464.95 C422.96,464.92 419.58,463.38 416.00,461.53 C412.42,459.67 405.56,456.45 400.75,454.37 C395.94,452.29 392.00,450.25 392.00,449.83 C392.00,447.54 424.50,428.00 428.30,428.00 C428.42,428.00 427.62,436.33 426.53,446.50 Z" fill="rgb(0,0,0)"/>
<path d="M 424.76 657.47 C412.31,650.54 410.94,602.06 420.46,506.00 C421.25,498.02 422.20,488.03 422.56,483.79 L 423.23 476.08 L 417.36 473.46 C414.14,472.01 404.99,468.14 397.04,464.84 C382.00,458.60 377.70,456.17 375.98,452.96 C373.62,448.56 388.67,437.14 413.50,424.47 C421.20,420.54 428.06,417.14 428.75,416.91 C429.57,416.64 431.56,406.56 434.47,388.00 C457.98,238.06 480.94,146.01 499.45,127.49 C508.42,118.53 518.73,120.82 522.00,132.50 C523.55,138.03 522.34,140.00 517.38,140.00 C506.40,140.00 495.19,164.61 482.54,216.49 C477.04,239.08 472.54,260.13 469.07,279.50 C467.99,285.55 463.67,309.17 459.48,332.00 C448.68,390.74 445.70,408.04 446.30,408.63 C446.59,408.92 453.95,406.13 462.66,402.44 C511.28,381.82 578.89,362.43 609.00,360.48 C618.96,359.84 619.68,359.92 622.91,362.15 C627.07,365.02 629.72,368.49 630.89,372.62 C632.85,379.46 628.39,379.50 623.47,372.69 C619.50,367.21 616.53,366.92 606.33,371.00 C590.88,377.19 573.53,391.10 567.54,402.10 C561.66,412.90 568.32,411.66 599.92,396.04 C619.47,386.38 625.50,383.83 629.13,383.69 C636.78,383.39 638.51,386.46 635.51,394.96 C630.81,408.30 631.64,417.50 637.94,421.74 C644.35,426.06 651.02,427.32 660.65,426.04 C677.98,423.73 707.33,413.70 748.50,396.02 C786.72,379.60 797.89,374.33 803.32,370.15 C819.60,357.60 842.38,353.26 846.00,362.01 C847.95,366.72 846.32,367.82 838.24,367.26 C826.30,366.44 812.60,373.13 799.92,385.98 C792.02,393.98 787.00,403.22 787.00,409.76 C787.00,422.60 807.38,427.53 834.00,421.13 C857.00,415.60 896.24,399.45 950.18,373.30 C963.20,366.99 974.68,361.98 975.68,362.18 C979.62,362.94 977.60,366.43 970.50,371.15 C956.86,380.21 907.30,403.73 877.00,415.51 C845.68,427.70 825.12,432.98 808.91,432.99 C793.12,433.00 784.66,429.71 779.00,421.33 C776.90,418.22 776.51,416.50 776.56,410.55 C776.60,404.42 777.09,402.58 780.19,396.74 C782.16,393.03 783.67,390.00 783.55,390.00 C783.44,390.00 773.93,394.32 762.42,399.61 C728.00,415.42 695.08,428.31 675.50,433.64 C667.45,435.83 663.25,436.37 653.91,436.43 C642.59,436.50 642.18,436.42 635.45,433.00 C629.90,430.17 627.99,428.55 625.54,424.57 C622.56,419.74 622.50,419.38 622.62,407.39 L 622.74 395.15 L 620.29 396.08 C618.94,396.59 609.89,401.05 600.17,406.00 C581.53,415.47 572.69,419.00 567.59,419.00 C563.90,418.99 558.58,415.96 556.96,412.92 C553.91,407.23 560.54,392.64 570.53,383.04 L 576.90 376.93 L 573.20 377.60 C557.20,380.49 512.62,394.40 482.00,406.05 C450.49,418.03 444.71,420.55 443.95,422.63 C443.57,423.66 441.78,435.42 439.96,448.76 L 436.66 473.02 L 441.08 476.67 C459.92,492.23 473.50,513.00 479.06,534.73 C481.74,545.21 481.70,564.05 478.97,576.98 C469.52,621.76 439.81,665.86 424.76,657.47 ZM 438.64 640.76 C451.62,628.80 465.27,601.51 469.88,578.33 C472.79,563.74 473.31,555.43 472.00,544.47 C469.96,527.40 465.13,515.34 454.85,501.67 C450.04,495.26 439.03,485.00 436.97,485.00 C435.36,485.00 435.13,487.13 430.98,539.94 C425.55,608.95 426.26,645.00 433.05,645.00 C433.60,645.00 436.11,643.09 438.64,640.76 ZM 426.53 446.50 C427.62,436.33 428.42,428.00 428.30,428.00 C424.50,428.00 392.00,447.54 392.00,449.83 C392.00,450.25 395.94,452.29 400.75,454.37 C405.56,456.45 412.42,459.67 416.00,461.53 C419.58,463.38 422.96,464.92 423.52,464.95 C424.11,464.98 425.38,457.23 426.53,446.50 Z" fill="rgb(252,252,251)"/>
</g>
</svg>