<svg xmlns="http://www.w3.org/2000/svg" viewBox="370 110 615 560">
  <path fill="#0981E3" d="M 437.68 655.45 C429.57,660.20 424.81,659.66 421.04,653.56 C414.08,642.30 412.42,604.86 416.56,552.50 C419.05,521.01 420.03,509.71 420.97,501.50 C421.47,497.10 422.18,489.67 422.54,484.98 L 423.20 476.46 L 419.35 474.60 C417.23,473.57 407.67,469.44 398.11,465.41 C380.25,457.89 376.00,455.22 376.00,451.53 C376.00,446.68 391.29,435.85 415.00,423.92 C422.98,419.91 429.67,416.50 429.87,416.36 C430.22,416.11 432.44,402.14 435.02,384.00 C435.61,379.88 436.74,372.90 437.54,368.50 C438.33,364.10 440.08,354.20 441.42,346.50 C448.99,303.10 453.32,279.44 457.90,256.50 C470.11,195.35 485.23,146.17 496.59,130.67 C505.86,118.04 519.86,119.87 522.49,134.06 C523.28,138.30 522.18,139.46 516.59,140.32 C514.33,140.67 511.50,142.06 509.85,143.64 C503.72,149.52 494.45,171.31 488.02,195.00 C482.06,216.94 473.40,255.82 469.08,280.00 C467.46,289.08 464.54,305.05 462.60,315.50 C450.03,383.21 445.72,408.05 446.43,408.77 C446.72,409.05 449.33,408.26 452.23,407.01 C492.43,389.65 521.93,379.64 566.00,368.38 C582.45,364.17 593.78,362.05 605.63,360.95 C618.68,359.73 622.07,360.38 626.41,364.91 C630.86,369.55 632.98,378.00 629.70,378.00 C629.11,378.00 626.54,375.75 624.00,373.00 C618.58,367.14 616.51,366.81 607.74,370.42 C597.06,374.81 586.70,381.46 578.53,389.16 C570.51,396.73 564.22,405.93 565.57,408.12 C567.36,411.02 575.90,408.02 599.91,396.07 C621.72,385.21 624.67,384.00 629.45,384.00 C637.35,384.00 637.92,385.16 635.22,395.85 C632.00,408.62 631.68,411.49 633.00,415.50 C634.58,420.29 640.58,424.56 647.82,426.07 C662.36,429.09 696.67,418.64 754.00,393.74 C791.59,377.42 795.25,375.66 804.55,369.44 C816.76,361.28 823.22,358.83 834.13,358.24 C841.94,357.81 842.97,357.97 844.88,359.88 C847.24,362.24 847.66,365.47 845.75,366.66 C845.06,367.09 840.90,367.46 836.50,367.49 C829.40,367.54 827.61,367.97 820.61,371.27 C807.56,377.44 795.21,388.82 789.43,400.00 C788.32,402.14 787.60,405.77 787.56,409.33 C787.51,414.66 787.77,415.40 790.71,418.03 C797.26,423.88 811.52,425.56 828.14,422.42 C850.66,418.18 892.42,401.46 946.95,374.87 C972.00,362.66 977.50,360.79 977.50,364.50 C977.50,367.50 966.38,374.55 944.50,385.41 C897.74,408.64 854.09,425.80 828.48,431.05 C820.46,432.69 815.45,433.09 806.24,432.84 C795.32,432.53 793.87,432.25 788.55,429.50 C784.80,427.56 781.65,424.96 779.63,422.15 C776.87,418.32 776.50,417.02 776.51,411.15 C776.52,405.76 777.12,403.22 779.71,397.75 C781.46,394.04 782.63,391.00 782.31,391.00 C781.99,391.00 772.90,395.00 762.11,399.90 C725.17,416.66 693.85,428.93 676.00,433.61 C667.58,435.82 663.21,436.38 653.91,436.43 C642.58,436.50 642.16,436.42 635.45,433.00 C629.89,430.17 628.00,428.56 625.54,424.56 C622.55,419.70 622.50,419.40 622.68,407.36 C622.85,395.15 622.85,395.11 620.68,395.93 C619.48,396.39 609.63,401.28 598.80,406.80 C572.33,420.28 564.42,421.85 558.46,414.77 C556.20,412.08 555.90,411.01 556.44,407.56 C557.60,400.14 562.60,391.22 569.73,383.84 C575.93,377.41 576.24,376.90 573.49,377.55 C544.96,384.30 515.60,393.50 481.00,406.54 C449.58,418.37 444.63,420.59 443.83,423.20 C443.44,424.47 441.67,436.24 439.90,449.37 L 436.67 473.25 L 441.09 476.79 C452.41,485.89 464.87,500.98 470.98,513.00 C472.51,516.03 475.26,522.55 477.08,527.50 C480.36,536.42 480.39,536.67 480.44,554.50 C480.50,571.15 480.29,573.32 477.66,583.40 C469.51,614.68 451.32,647.45 437.68,655.45 ZM 429.30 639.25 C430.43,642.95 431.60,645.00 432.57,645.00 C437.36,645.00 451.61,626.52 459.03,610.68 C479.89,566.16 476.41,523.55 449.62,495.71 C442.15,487.94 437.39,484.27 436.26,485.40 C435.42,486.25 433.85,503.47 430.42,549.50 C427.07,594.58 426.62,630.47 429.30,639.25 ZM 418.00 462.52 C420.48,463.83 422.98,464.93 423.57,464.95 C424.49,464.99 429.17,429.23 428.39,428.15 C428.25,427.96 423.09,430.43 416.92,433.63 C405.32,439.66 392.89,447.70 392.30,449.56 C392.11,450.15 396.80,452.76 402.73,455.38 C408.65,457.99 415.52,461.20 423.57,464.95 Z"/>
</svg>
