<svg width="54" height="54" viewBox="0 0 54 54" fill="none" xmlns="http://www.w3.org/2000/svg">
<path d="M38.5714 0H15.4286C6.90761 0 0 6.90761 0 15.4286V38.5714C0 47.0924 6.90761 54 15.4286 54H38.5714C47.0924 54 54 47.0924 54 38.5714V15.4286C54 6.90761 47.0924 0 38.5714 0Z" fill="#0289F7" fill-opacity="0.1"/>
<g transform="translate(27 27) scale(0.06) translate(-677.5 -388)" fill="#0981E3" stroke="#0981E3" stroke-width="30" stroke-linejoin="round" stroke-linecap="round">
<path d="M 424.76 657.47 C412.31,650.54 410.94,602.06 420.46,506.00 C421.25,498.02 422.20,488.03 422.56,483.79 L 423.23 476.08 L 417.36 473.46 C414.14,472.01 404.99,468.14 397.04,464.84 C382.00,458.60 377.70,456.17 375.98,452.96 C373.62,448.56 388.67,437.14 413.50,424.47 C421.20,420.54 428.06,417.14 428.75,416.91 C429.57,416.64 431.56,406.56 434.47,388.00 C457.98,238.06 480.94,146.01 499.45,127.49 C508.42,118.53 518.73,120.82 522.00,132.50 C523.55,138.03 522.34,140.00 517.38,140.00 C506.40,140.00 495.19,164.61 482.54,216.49 C477.04,239.08 472.54,260.13 469.07,279.50 C467.99,285.55 463.67,309.17 459.48,332.00 C448.68,390.74 445.70,408.04 446.30,408.63 C446.59,408.92 453.95,406.13 462.66,402.44 C511.28,381.82 578.89,362.43 609.00,360.48 C618.96,359.84 619.68,359.92 622.91,362.15 C627.07,365.02 629.72,368.49 630.89,372.62 C632.85,379.46 628.39,379.50 623.47,372.69 C619.50,367.21 616.53,366.92 606.33,371.00 C590.88,377.19 573.53,391.10 567.54,402.10 C561.66,412.90 568.32,411.66 599.92,396.04 C619.47,386.38 625.50,383.83 629.13,383.69 C636.78,383.39 638.51,386.46 635.51,394.96 C630.81,408.30 631.64,417.50 637.94,421.74 C644.35,426.06 651.02,427.32 660.65,426.04 C677.98,423.73 707.33,413.70 748.50,396.02 C786.72,379.60 797.89,374.33 803.32,370.15 C819.60,357.60 842.38,353.26 846.00,362.01 C847.95,366.72 846.32,367.82 838.24,367.26 C826.30,366.44 812.60,373.13 799.92,385.98 C792.02,393.98 787.00,403.22 787.00,409.76 C787.00,422.60 807.38,427.53 834.00,421.13 C857.00,415.60 896.24,399.45 950.18,373.30 C963.20,366.99 974.68,361.98 975.68,362.18 C979.62,362.94 977.60,366.43 970.50,371.15 C956.86,380.21 907.30,403.73 877.00,415.51 C845.68,427.70 825.12,432.98 808.91,432.99 C793.12,433.00 784.66,429.71 779.00,421.33 C776.90,418.22 776.51,416.50 776.56,410.55 C776.60,404.42 777.09,402.58 780.19,396.74 C782.16,393.03 783.67,390.00 783.55,390.00 C783.44,390.00 773.93,394.32 762.42,399.61 C728.00,415.42 695.08,428.31 675.50,433.64 C667.45,435.83 663.25,436.37 653.91,436.43 C642.59,436.50 642.18,436.42 635.45,433.00 C629.90,430.17 627.99,428.55 625.54,424.57 C622.56,419.74 622.50,419.38 622.62,407.39 L 622.74 395.15 L 620.29 396.08 C618.94,396.59 609.89,401.05 600.17,406.00 C581.53,415.47 572.69,419.00 567.59,419.00 C563.90,418.99 558.58,415.96 556.96,412.92 C553.91,407.23 560.54,392.64 570.53,383.04 L 576.90 376.93 L 573.20 377.60 C557.20,380.49 512.62,394.40 482.00,406.05 C450.49,418.03 444.71,420.55 443.95,422.63 C443.57,423.66 441.78,435.42 439.96,448.76 L 436.66 473.02 L 441.08 476.67 C459.92,492.23 473.50,513.00 479.06,534.73 C481.74,545.21 481.70,564.05 478.97,576.98 C469.52,621.76 439.81,665.86 424.76,657.47 ZM 438.64 640.76 C451.62,628.80 465.27,601.51 469.88,578.33 C472.79,563.74 473.31,555.43 472.00,544.47 C469.96,527.40 465.13,515.34 454.85,501.67 C450.04,495.26 439.03,485.00 436.97,485.00 C435.36,485.00 435.13,487.13 430.98,539.94 C425.55,608.95 426.26,645.00 433.05,645.00 C433.60,645.00 436.11,643.09 438.64,640.76 ZM 426.53 446.50 C427.62,436.33 428.42,428.00 428.30,428.00 C424.50,428.00 392.00,447.54 392.00,449.83 C392.00,450.25 395.94,452.29 400.75,454.37 C405.56,456.45 412.42,459.67 416.00,461.53 C419.58,463.38 422.96,464.92 423.52,464.95 C424.11,464.98 425.38,457.23 426.53,446.50 Z"/>
</g>
</svg>
